<svg version="1.2" xmlns="http://www.w3.org/2000/svg" viewBox="0 0 28 31" width="28" height="31">
	<title>freshcart-logo-dark-basket-86efac</title>
	<style>
		.s0 { fill: none;stroke: #86efac;stroke-linecap: round;stroke-miterlimit:10;stroke-width: 1.3 } 
		.s1 { fill: none;stroke: #86efac;stroke-linecap: round;stroke-miterlimit:10;stroke-width: 1.1 } 
		.s2 { fill: #21313c } 
	</style>
	<path class="s0" d="m8.1 24.9c1.5 0 2.7-1.2 2.7-2.7 0-1.5-1.2-2.7-2.7-2.7-1.4 0-2.6 1.2-2.6 2.7 0 1.5 1.2 2.7 2.6 2.7z"/>
	<path class="s0" d="m7 9.2h16.1"/>
	<path class="s0" d="m8.4 12.4h14"/>
	<path class="s0" d="m7.7 19.5h10.4c1.2 0 2.2-0.7 2.6-1.8l4.3-12.5c0.3-1.1 1.3-1.8 2.5-1.8h3.1"/>
	<path class="s1" d="m8.1 22.6c0.2 0 0.4-0.2 0.4-0.4 0-0.2-0.2-0.4-0.4-0.4-0.2 0-0.4 0.2-0.4 0.4 0 0.2 0.2 0.4 0.4 0.4z"/>
	<path class="s0" d="m17.8 24.9c1.5 0 2.7-1.2 2.7-2.7 0-1.5-1.2-2.7-2.7-2.7-1.5 0-2.6 1.2-2.6 2.7 0 1.5 1.1 2.7 2.6 2.7z"/>
	<path class="s1" d="m17.8 22.6c0.2 0 0.4-0.2 0.4-0.4 0-0.2-0.2-0.4-0.4-0.4-0.2 0-0.4 0.2-0.4 0.4 0 0.2 0.2 0.4 0.4 0.4z"/>
	<path class="s0" d="m21.2 16.2h-14.1c-0.4 0-0.8-0.4-1-0.8l-2.3-8.8c-0.2-0.4 0.1-0.8 0.6-0.8h18"/>
	<path class="s0" d="m1 26.5c0 0 10.3-3.4 24.1 0"/>
	<path class="s2" d="m36.5 25v-18.7h12.4v3.3h-8.4v4.4h7.6v3.3h-7.6v7.7z"/>
	<path class="s2" d="m50.5 25v-14h3.7v2.4h0.2q0.4-1.3 1.3-1.9 0.9-0.7 2-0.7 0.3 0 0.7 0 0.3 0.1 0.6 0.1v3.5q-0.3-0.1-0.8-0.2-0.5 0-0.9 0-0.8 0-1.5 0.4-0.7 0.3-1.1 1-0.4 0.6-0.4 1.5v7.9z"/>
	<path class="s2" d="m65.9 25.3q-2.1 0-3.7-0.9-1.5-0.9-2.4-2.5-0.8-1.6-0.8-3.8 0-2.2 0.8-3.8 0.9-1.7 2.4-2.6 1.5-0.9 3.6-0.9 1.3 0 2.5 0.5 1.2 0.4 2.1 1.3 0.9 0.9 1.4 2.2 0.5 1.3 0.5 3.1v1.1h-11.8v-2.4h8.2q0-0.8-0.4-1.5-0.3-0.6-1-1-0.6-0.4-1.5-0.4-0.9 0-1.5 0.4-0.7 0.4-1.1 1.1-0.4 0.7-0.4 1.5v2.3q0 1 0.4 1.8 0.4 0.8 1.1 1.2 0.7 0.4 1.7 0.4 0.6 0 1.2-0.2 0.5-0.2 0.9-0.6 0.4-0.3 0.6-0.8l3.6 0.2q-0.3 1.3-1.2 2.3-0.8 0.9-2.1 1.4-1.3 0.6-3.1 0.6z"/>
	<path class="s2" d="m85.7 15l-3.5 0.2q-0.1-0.4-0.4-0.8-0.3-0.4-0.8-0.6-0.5-0.2-1.1-0.2-0.9 0-1.6 0.4-0.6 0.3-0.6 1 0 0.5 0.4 0.8 0.4 0.4 1.4 0.6l2.5 0.5q2.1 0.4 3.1 1.3 1 1 1 2.5 0 1.3-0.8 2.4-0.8 1-2.2 1.6-1.4 0.6-3.3 0.6-2.7 0-4.4-1.2-1.6-1.1-1.9-3.2l3.8-0.2q0.2 0.9 0.8 1.3 0.7 0.5 1.7 0.5 1.1 0 1.7-0.4 0.6-0.4 0.6-1 0-0.6-0.4-0.9-0.5-0.4-1.4-0.5l-2.4-0.5q-2-0.4-3-1.4-1-1.1-1-2.6 0-1.4 0.7-2.3 0.7-1 2.1-1.5 1.3-0.6 3.1-0.6 2.6 0 4.2 1.1 1.5 1.2 1.7 3.1z"/>
	<path class="s2" d="m91.6 16.9v8.1h-3.9v-18.7h3.8v7.2h0.2q0.5-1.3 1.5-2 1.1-0.7 2.7-0.7 1.4 0 2.5 0.7 1.1 0.6 1.7 1.8 0.6 1.1 0.6 2.8v8.9h-3.9v-8.2q0-1.3-0.6-2-0.7-0.8-1.9-0.8-0.8 0-1.4 0.4-0.6 0.3-0.9 1-0.4 0.6-0.4 1.5z"/>
	<path class="s2" d="m119.5 12.9h-4q-0.1-0.8-0.4-1.4-0.4-0.6-0.9-1-0.5-0.5-1.2-0.7-0.7-0.2-1.5-0.2-1.4 0-2.5 0.7-1.1 0.7-1.7 2.1-0.6 1.3-0.6 3.3 0 2 0.6 3.3 0.6 1.4 1.7 2.1 1.1 0.7 2.5 0.7 0.8 0 1.4-0.2 0.7-0.3 1.3-0.7 0.5-0.4 0.8-0.9 0.4-0.6 0.5-1.4h4q-0.1 1.3-0.8 2.5-0.6 1.2-1.6 2.1-1 1-2.5 1.5-1.4 0.6-3.2 0.6-2.5 0-4.4-1.2-2-1.1-3.1-3.2-1.2-2.2-1.2-5.2 0-3.1 1.2-5.2 1.1-2.2 3.1-3.3 2-1.1 4.4-1.1 1.6 0 3 0.4 1.4 0.5 2.5 1.4 1.1 0.8 1.7 2.1 0.7 1.3 0.9 2.9z"/>
	<path class="s2" d="m125.5 25.3q-1.3 0-2.4-0.5-1-0.5-1.7-1.4-0.6-0.9-0.6-2.3 0-1.2 0.5-2 0.4-0.8 1.1-1.2 0.8-0.5 1.7-0.8 1-0.2 2-0.3 1.2-0.1 2-0.3 0.7-0.1 1.1-0.3 0.3-0.2 0.3-0.7 0-0.9-0.6-1.4-0.5-0.4-1.5-0.4-1 0-1.7 0.4-0.6 0.5-0.8 1.2l-3.6-0.3q0.3-1.3 1.1-2.2 0.8-1 2.1-1.5 1.3-0.5 2.9-0.5 1.2 0 2.3 0.3 1 0.3 1.9 0.8 0.8 0.6 1.3 1.5 0.5 0.9 0.5 2.2v9.4h-3.7v-1.9h-0.1q-0.4 0.6-0.9 1.1-0.6 0.5-1.4 0.8-0.8 0.3-1.8 0.3zm1.1-2.7q0.9 0 1.5-0.4 0.7-0.3 1-0.9 0.4-0.6 0.4-1.3v-1.5q-0.2 0.1-0.5 0.2-0.3 0.1-0.7 0.2-0.4 0.1-0.8 0.1-0.4 0.1-0.7 0.1-0.7 0.1-1.2 0.4-0.5 0.2-0.8 0.6-0.2 0.3-0.2 0.9 0 0.8 0.5 1.2 0.6 0.4 1.5 0.4z"/>
	<path class="s2" d="m135.6 25v-14h3.8v2.4h0.1q0.4-1.3 1.3-1.9 0.9-0.7 2.1-0.7 0.3 0 0.6 0 0.4 0.1 0.6 0.1v3.5q-0.3-0.1-0.7-0.2-0.5 0-0.9 0-0.9 0-1.6 0.4-0.6 0.3-1 1-0.4 0.6-0.4 1.5v7.9z"/>
	<path class="s2" d="m153.5 11v2.9h-8.4v-2.9zm-6.6-3.3h3.9v13q0 0.5 0.2 0.8 0.2 0.3 0.4 0.4 0.3 0.2 0.7 0.2 0.3 0 0.6-0.1 0.3 0 0.4-0.1l0.6 2.9q-0.3 0.1-0.8 0.2-0.5 0.2-1.3 0.2-1.4 0-2.4-0.4-1.1-0.4-1.7-1.3-0.6-0.9-0.6-2.3z"/>
</svg>